<mxfile host="app.diagrams.net" modified="2024-04-13T13:19:45.657Z" agent="Mozilla/5.0 (Windows NT 10.0; Win64; x64; rv:125.0) Gecko/20100101 Firefox/125.0" version="24.0.2" etag="86CmAHvHGjBcWsWks4-H" type="github">
  <diagram name="PÃ¡gina-1" id="yReXN-HPem1UelT14ytC">
    <mxGraphModel>
      <root>
        <mxCell id="0" />
        <mxCell id="1" parent="0" />
      </root>
    </mxGraphModel>
  </diagram>
</mxfile>
